<svg width="15" height="12" viewBox="0 0 15 12" fill="none" xmlns="http://www.w3.org/2000/svg">
<path d="M5.40698 0C5.25981 0.00426145 5.14467 0.115767 5.0963 0.198873L4.31686 1.81818H1.39535C0.628186 1.81818 0 2.47302 0 3.27273V10.5455C0 11.3452 0.628186 12 1.39535 12H13.6047C14.3718 12 15 11.3452 15 10.5455V3.27273C15 2.47302 14.3718 1.81818 13.6047 1.81818H10.6831L9.9037 0.198873C9.84579 0.0802654 9.7211 0 9.59302 0H5.40698ZM5.61956 0.727273H9.38037L10.1544 2.34091C10.2109 2.46165 10.3363 2.54404 10.465 2.54545H13.6046C13.997 2.54545 14.3022 2.86364 14.3022 3.27273V10.5455C14.3022 10.9545 13.997 11.2727 13.6046 11.2727H1.39526C1.00282 11.2727 0.697587 10.9545 0.697587 10.5455V3.27273C0.697587 2.86364 1.00282 2.54545 1.39526 2.54545H4.5348C4.66357 2.54332 4.78892 2.46165 4.84547 2.34091L5.61956 0.727273ZM7.49997 3.45455C5.77008 3.45455 4.36043 4.924 4.36043 6.72727C4.36043 8.53055 5.77008 10 7.49997 10C9.22985 10 10.6395 8.53055 10.6395 6.72727C10.6395 4.924 9.22985 3.45455 7.49997 3.45455ZM7.49997 4.18182C8.85239 4.18182 9.94183 5.31747 9.94183 6.72727C9.94183 8.13707 8.85239 9.27273 7.49997 9.27273C6.14754 9.27273 5.0581 8.13707 5.0581 6.72727C5.0581 5.31747 6.14754 4.18182 7.49997 4.18182Z" fill="#2A2A2A"/>
</svg>
