<svg width="12" height="16" viewBox="0 0 12 16" fill="none" xmlns="http://www.w3.org/2000/svg">
<path d="M3.55856 6.98547C3.95057 7.96796 4.89454 8.6182 5.95193 8.63626L5.95528 8.6363C6.65496 8.64449 7.32913 8.37415 7.82938 7.88518C8.33028 7.39558 8.61417 6.72734 8.62073 6.02846L8.16324 6.02418L8.62075 6.02506C8.62486 4.96682 7.99193 4.01093 7.01722 3.59994C6.04277 3.18818 4.91638 3.40256 4.16035 4.14121L4.15986 4.1417C3.40421 4.88161 3.16643 6.00274 3.55856 6.98547ZM3.55856 6.98547L4.13905 6.75385L3.55856 6.98547ZM5.99704 15.2913C5.4519 14.5206 4.90608 13.7522 4.36063 12.9844C3.41449 11.6525 2.4695 10.3222 1.53122 8.9845C1.03028 8.26451 0.727235 7.42629 0.651572 6.55226L0.651609 6.55226L0.650949 6.5455C0.426368 4.24292 1.67358 2.04462 3.76304 1.14188L3.76347 1.14169C4.81461 0.68661 5.80769 0.539981 6.74265 0.670993C7.67766 0.802015 8.59418 1.21627 9.4835 1.94426L9.48542 1.94582C10.5311 2.7949 11.1954 4.02494 11.3307 5.36344L11.3315 5.3717L11.3326 5.37993C11.5037 6.71676 11.1531 8.06877 10.3536 9.15422L10.3535 9.15416L10.3474 9.16281C8.90674 11.1898 7.46487 13.2198 6.02165 15.2544L6.00301 15.2807L5.99704 15.2913Z" stroke="#2A2A2A" stroke-width="1.25"/>
</svg>
